<?xml version="1.0" encoding="UTF-8"?>
<svg id="Layer_1" data-name="Layer 1" xmlns="http://www.w3.org/2000/svg" width="199.57mm" height="30.62mm" viewBox="0 0 565.71 86.81">
  <g>
    <path d="M104.7,64.1c-.49,2.23-.82,4.54-.82,6.84,0,7.01,2.8,10.14,7.42,10.14,4.95,0,10.31-3.54,15.26-9.65l1.9,1.15c-5.85,8.49-12.2,12.45-18.64,12.45-6.1,0-10.39-4.04-10.39-13.03,0-13.69,10.06-32.16,25.32-32.16,5.61,0,8.41,2.64,8.41,6.27,0,8.66-11.55,13.03-28.45,17.98ZM105.61,61.05c14.68-5.03,22.76-9.32,22.76-14.43,0-2.31-1.9-3.63-4.78-3.63-7.17,0-14.68,8.25-17.98,18.06Z" fill="#231f20"/>
    <path d="M107.62,42.07l-2.31,5.11h-.82c-.83-.33-1.48-.49-2.48-.49-8.08,0-15.83,21.28-19.79,38.92h-4.12l7.5-35.46c.49-2.31.99-4.29-.49-4.29-1.24,0-3.05,2.8-5.69,7.09l-1.73-1.07c3.79-7.09,7.01-10.47,10.31-10.47,2.8,0,2.97,2.97,1.98,7.75l-2.56,11.71c4.37-11.05,9.98-19.46,16.74-19.46,1.07,0,2.39.08,3.46.66Z" fill="#231f20"/>
    <path d="M299.64,71.32c0,6.78.32,10.38,4.66,10.38v1.91h-28.81v-1.91c4.34,0,4.66-3.6,4.66-10.38v-23.31c0-7.2-.85-11.23-6.78-11.23-1.91,0-4.66.64-6.99,1.59v32.95c0,6.78.32,10.38,4.66,10.38v1.91h-28.81v-1.91c4.34,0,4.66-3.6,4.66-10.38v-28.6c0-6.78-1.8-8.69-5.4-9.96v-1.91l23.63-3.82h1.27v7.1c5.09-4.34,12.08-7.31,19.07-7.31,10.06,0,14.19,5.93,14.19,16.53v27.97Z" fill="#231f20"/>
    <path d="M337.37,28.1h16.31v1.91c-2.54.64-4.77,4.77-8.58,15.25l-14.41,39.2h-5.3l-17.69-43.75c-2.76-6.89-4.34-10.06-7.95-10.7v-1.91h29.98v1.91c-4.77.42-4.77,3.18-2.97,7.84l7.73,20.45,5.19-14.3c3.5-9.64,1.91-13.14-2.33-13.98v-1.91Z" fill="#231f20"/>
    <path d="M404.03,77.15c-1.69,2.33-6.57,7.73-15.47,7.73-6.57,0-9.11-3.07-9.96-6.36-4.02,4.03-10.17,6.36-15.68,6.36-7.2,0-13.03-4.87-13.03-13.14,0-7.63,4.98-13.77,17.27-17.27l10.07-2.86v-5.3c0-2.96,0-10.59-9.01-10.59-6.57,0-10.17,4.24-12.29,8.69l-4.77-1.8c3.49-10.17,13.45-15.78,25.32-15.78,12.5,0,19.6,7.2,19.6,19.7v23.52c0,2.65,0,5.93,2.54,5.93.95,0,2.01-.32,3.07-1.16l2.33,2.33ZM372.88,75.98c1.48,0,2.97-.42,4.34-1.16v-18.65l-2.01.74c-5.83,2.12-8.47,4.66-8.47,10.17s2.75,8.9,6.14,8.9Z" fill="#231f20"/>
    <path d="M406.58,82.34l-.95-16.95h1.91c4.66,8.47,8.58,15.04,16.95,15.04,5.09,0,8.26-2.76,8.26-6.14,0-4.45-2.86-6.04-9.75-9.64l-4.24-2.22c-3.81-2.01-12.18-6.14-12.18-17.16,0-11.87,9.64-18.43,21.29-18.43,4.24,0,11.34.85,15.79,2.33v14.2h-1.91c-4.03-7.52-7.84-12.08-14.3-12.08-5.08,0-7.2,2.54-7.2,5.72,0,4.24,3.39,5.93,6.99,7.84l4.24,2.23c7.2,3.81,14.94,7.42,14.94,18.43,0,12.08-9.53,19.39-23.73,19.39-4.87,0-11.86-.85-16.1-2.54Z" fill="#231f20"/>
    <path d="M501.4,52.04h-31.67c.74,12.29,5.4,20.97,14.94,20.97,6.36,0,10.49-2.54,13.56-5.61l3.18,1.91c-4.34,8.79-12.29,15.57-24.68,15.57-17.16,0-26.38-13.35-26.38-27.97,0-16.53,11.87-30.09,29.03-30.09,15.04,0,23.09,9.75,22.03,25.21ZM469.62,46.96h15.79c.85-9.74-.85-15.47-6.67-15.47-6.25,0-8.79,5.93-9.11,15.47Z" fill="#231f20"/>
    <path d="M560.31,69.2c0,6.78,1.8,9.75,5.4,11.02v1.91l-21.5,2.75h-1.27l-1.27-5.83c-3.39,3.71-8.69,5.83-14.83,5.83-11.02,0-21.4-9.96-21.4-27.33,0-21.19,15.25-30.72,29.45-30.72,2.12,0,4.13.21,5.93.74v-11.97c0-6.78-1.8-8.69-5.4-9.96v-1.91l23.63-2.97h1.27v68.43ZM535.31,75.77c1.59,0,3.6-.32,5.51-1.27v-29.87c0-9.32-1.48-13.14-5.93-13.14-6.57,0-9.11,8.58-9.11,20.87,0,14.19,2.75,23.41,9.53,23.41Z" fill="#231f20"/>
    <path d="M241.03,74.82c-1.06.85-2.12,1.17-3.07,1.17-2.55,0-2.55-3.29-2.55-5.93v-23.52c0-10.92-8.88-19.77-19.8-19.71-11.78.06-21.64,5.68-25.11,15.79l-.93,3.27c-1.61,5.65-2.8,10.29-5.12,16.51l-.64,1.39c-2.39,5.17-7.34,8.85-13.03,9.19-.34.02-.69.03-1.03.03-10.38,0-15.04-10.38-15.04-24.58,0-12.07,3.17-16.94,9.11-16.94,6.46,0,10.06,7.09,11.54,14.72h1.91l7.52-10.91c-4.45-4.66-12.18-8.48-20.76-8.48-15.47,0-28.6,12.4-28.6,30.09,0,15.26,9.74,27.97,25.95,27.97,10.26,0,17.82-5.06,22.48-12.12,1.18-1.79,2.08-3.76,2.73-5.8h0c2.81-7.63,5.61-14.77,8.68-22.55h0c2.12-4.45,5.73-8.69,12.29-8.69,9.01,0,9.01,7.63,9.01,10.6v5.29l-10.06,2.86c-12.29,3.5-17.27,9.64-17.27,17.27,0,8.26,5.82,13.14,13.03,13.14,5.51,0,11.65-2.33,15.68-6.36.84,3.28,3.39,6.36,9.95,6.36,8.9,0,13.77-5.41,15.47-7.74l-2.33-2.33ZM216.56,74.82c-1.38.74-2.86,1.17-4.34,1.17-3.4,0-6.15-3.18-6.15-8.9s2.65-8.05,8.48-10.17l2.01-.74v18.64Z" fill="#231f20"/>
  </g>
  <g>
    <rect x="1.5" y="1.5" width="60.44" height="83.81" fill="#fff" stroke="#231f20" stroke-linejoin="round" stroke-width="3"/>
    <g>
      <path d="M27.09,85.61s5.03-21.61,3.57-43.22" fill="none" stroke="#231f20" stroke-linejoin="round" stroke-width="3"/>
      <path d="M23.26,33.01s-9.55-7.83.28-14.12c10.28-6.57,10.69,9.7,10.69,9.7,0,0,10.96-10.24,15.75-.84,4.79,9.41-11.35,10.52-11.35,10.52,0,0,10.79,11.38-.18,14.15s-10.72-9.47-10.72-9.47c0,0-8.51,9.59-13.04,3.81-4.53-5.78-5.3-13.91,8.57-13.75Z" fill="#8099ce" stroke="#231f20" stroke-linejoin="round" stroke-width="3"/>
      <path d="M35.45,34.67c.5,2.37-2.12,4.45-3.38,5.21-2.08,1.25-4.27-1.39-5.21-3.38-1.03-2.19,1.27-5.25,3.38-5.21,1.89.04,4.76,1.27,5.21,3.38Z" fill="#fff" stroke="#231f20" stroke-linejoin="round" stroke-width="3"/>
    </g>
  </g>
</svg>